
<svg version="1.1" xmlns="http://www.w3.org/2000/svg" xmlns:xlink="http://www.w3.org/1999/xlink" preserveAspectRatio="xMidYMid meet" viewBox="0 0 640 640" width="640" height="640"><defs><path d="M320 0L640 0L640 320L640 640L320 640L0 640L0 320L0 0L320 0ZM474.63 252.46C497.83 233.72 537.34 217.46 567.41 213.92C584.16 211.8 588.46 210.03 588.46 204.73C588.46 196.6 588.03 196.6 560.54 202.96C518.87 211.8 471.62 237.97 451.01 262.72C441.99 273.68 437.69 275.8 425.23 275.8C411.06 275.8 409.77 274.74 402.47 257.06C388.3 224.18 388.3 213.22 402.04 200.84C442.42 166.19 502.12 142.14 563.97 136.13C584.59 134.01 588.46 132.6 588.46 126.59C588.46 120.22 586.74 119.51 568.27 121.64C520.16 127.29 465.18 148.15 421.37 177.15C387.44 199.78 372.4 200.49 355.65 180.69C347.06 171.14 343.62 162.3 343.62 152.4C343.62 139.31 345.34 136.84 370.68 120.22C420.08 87.34 491.38 63.65 557.96 57.99C584.59 55.87 588.46 54.81 588.46 48.44C588.46 42.08 586.74 41.72 561.83 43.85C496.11 49.15 414.5 79.56 357.8 118.81C328.59 139.67 316.13 139.67 286.5 118.81C237.53 84.86 182.55 61.88 119.41 49.5C73.02 40.31 55.84 40.31 55.84 49.15C55.84 54.45 60.56 55.87 85.05 57.99C160.21 64 235.38 90.52 288.64 130.12C309.26 145.68 310.12 157.35 291.22 178.92C272.32 200.49 256.86 200.49 226.36 178.56C188.99 151.69 124.56 127.29 76.03 121.64C57.56 119.51 55.84 120.22 55.84 126.59C55.84 132.24 59.7 134.01 79.89 136.13C139.17 142.14 191.57 161.94 232.81 193.77C256.86 212.15 258.15 218.87 243.97 253.17C234.52 275.09 233.66 275.8 219.06 275.8C206.6 275.8 202.31 273.68 196.3 265.55C178.26 240.09 112.54 205.79 72.16 200.13C57.99 198.01 55.84 198.72 55.84 204.73C55.84 210.03 59.7 211.8 76.89 213.92C108.24 217.46 149.48 234.78 171.81 254.23C204.89 282.87 219.06 315.05 219.06 362.78C219.06 397.44 231.09 439.87 251.7 476.64C257.29 486.9 262.01 496.09 262.01 496.8C262.01 499.62 293.37 538.87 306.68 552.66C313.56 559.73 321.29 565.39 323.87 564.69C326.44 563.98 335.89 555.49 344.91 545.94C389.15 498.21 424.81 420.42 425.23 371.27C425.66 317.88 441.56 279.34 474.63 252.46Z" id="e2NJb0RsN"></path><path d="M320 0L640 0L640 320L640 640L320 640L0 640L0 320L0 0L320 0ZM474.63 252.46C497.83 233.72 537.34 217.46 567.41 213.92C584.16 211.8 588.46 210.03 588.46 204.73C588.46 196.6 588.03 196.6 560.54 202.96C518.87 211.8 471.62 237.97 451.01 262.72C441.99 273.68 437.69 275.8 425.23 275.8C411.06 275.8 409.77 274.74 402.47 257.06C388.3 224.18 388.3 213.22 402.04 200.84C442.42 166.19 502.12 142.14 563.97 136.13C584.59 134.01 588.46 132.6 588.46 126.59C588.46 120.22 586.74 119.51 568.27 121.64C520.16 127.29 465.18 148.15 421.37 177.15C387.44 199.78 372.4 200.49 355.65 180.69C347.06 171.14 343.62 162.3 343.62 152.4C343.62 139.31 345.34 136.84 370.68 120.22C420.08 87.34 491.38 63.65 557.96 57.99C584.59 55.87 588.46 54.81 588.46 48.44C588.46 42.08 586.74 41.72 561.83 43.85C496.11 49.15 414.5 79.56 357.8 118.81C328.59 139.67 316.13 139.67 286.5 118.81C237.53 84.86 182.55 61.88 119.41 49.5C73.02 40.31 55.84 40.31 55.84 49.15C55.84 54.45 60.56 55.87 85.05 57.99C160.21 64 235.38 90.52 288.64 130.12C309.26 145.68 310.12 157.35 291.22 178.92C272.32 200.49 256.86 200.49 226.36 178.56C188.99 151.69 124.56 127.29 76.03 121.64C57.56 119.51 55.84 120.22 55.84 126.59C55.84 132.24 59.7 134.01 79.89 136.13C139.17 142.14 191.57 161.94 232.81 193.77C256.86 212.15 258.15 218.87 243.97 253.17C234.52 275.09 233.66 275.8 219.06 275.8C206.6 275.8 202.31 273.68 196.3 265.55C178.26 240.09 112.54 205.79 72.16 200.13C57.99 198.01 55.84 198.72 55.84 204.73C55.84 210.03 59.7 211.8 76.89 213.92C108.24 217.46 149.48 234.78 171.81 254.23C204.89 282.87 219.06 315.05 219.06 362.78C219.06 397.44 231.09 439.87 251.7 476.64C257.29 486.9 262.01 496.09 262.01 496.8C262.01 499.62 293.37 538.87 306.68 552.66C313.56 559.73 321.29 565.39 323.87 564.69C326.44 563.98 335.89 555.49 344.91 545.94C389.15 498.21 424.81 420.42 425.23 371.27C425.66 317.88 441.56 279.34 474.63 252.46Z" id="bk2lALEQ"></path><path d="M344.53 529.33C339.8 539.23 336.37 540.99 325.2 540.99C311.02 540.99 299.86 533.22 295.13 520.49C293.41 516.6 289.55 511.29 286.11 509.17C275.37 502.1 278.38 482.65 292.98 463.56C305.44 446.94 308.02 445.52 323.05 445.52C337.65 445.52 340.23 446.94 352.26 463.2C367.29 483.71 369.01 495.38 357.84 508.46C353.55 513.77 347.53 523.31 344.53 529.33Z" id="agrwRcxWx"></path><path d="M344.53 529.33C339.8 539.23 336.37 540.99 325.2 540.99C311.02 540.99 299.86 533.22 295.13 520.49C293.41 516.6 289.55 511.29 286.11 509.17C275.37 502.1 278.38 482.65 292.98 463.56C305.44 446.94 308.02 445.52 323.05 445.52C337.65 445.52 340.23 446.94 352.26 463.2C367.29 483.71 369.01 495.38 357.84 508.46C353.55 513.77 347.53 523.31 344.53 529.33Z" id="crTzcitgk"></path><path d="M351.61 274.39C360.2 255.29 361.06 254.59 376.53 254.59C377.64 254.59 383.06 254.59 392.85 254.59C397.49 270.07 400.06 278.67 400.58 280.4C415.18 329.19 414.32 389.3 397.57 446.59C392.85 462.14 391.56 463.2 378.67 463.2C371.37 463.2 363.21 461.08 360.63 458.96C352.9 450.83 343.02 421.83 337.44 391.07C331.43 355.01 337.01 305.86 351.61 274.39Z" id="b5mDrwd74"></path><path d="M351.61 274.39C360.2 255.29 361.06 254.59 376.53 254.59C377.64 254.59 383.06 254.59 392.85 254.59C397.49 270.07 400.06 278.67 400.58 280.4C415.18 329.19 414.32 389.3 397.57 446.59C392.85 462.14 391.56 463.2 378.67 463.2C371.37 463.2 363.21 461.08 360.63 458.96C352.9 450.83 343.02 421.83 337.44 391.07C331.43 355.01 337.01 305.86 351.61 274.39Z" id="b14MjVeb77"></path><path d="M254.71 254.59C264.5 254.59 269.96 254.59 271.03 254.59C286.07 254.59 288.21 256 293.8 266.61C303.68 286.41 313.56 331.31 313.56 357.48C313.56 384.35 304.11 427.14 294.23 446.94C288.21 458.25 286.07 459.67 271.03 459.67C269.96 459.67 264.5 459.67 254.71 459.67C253.9 456.95 247.37 435.16 246.55 432.44C239.12 357.48 239.12 307.38 246.55 282.17C247.11 280.33 249.81 271.13 254.71 254.59Z" id="i4KQ9q30Ja"></path><path d="M254.71 254.59C264.5 254.59 269.96 254.59 271.03 254.59C286.07 254.59 288.21 256 293.8 266.61C303.68 286.41 313.56 331.31 313.56 357.48C313.56 384.35 304.11 427.14 294.23 446.94C288.21 458.25 286.07 459.67 271.03 459.67C269.96 459.67 264.5 459.67 254.71 459.67C253.9 456.95 247.37 435.16 246.55 432.44C239.12 357.48 239.12 307.38 246.55 282.17C247.11 280.33 249.81 271.13 254.71 254.59Z" id="c215GVtBN"></path><path d="M292.51 191.29C304.97 175.03 307.54 173.26 322.15 173.26C336.75 173.26 339.33 175.03 351.79 191.29C359.09 201.19 365.1 212.51 365.1 216.75C365.1 220.99 359.09 234.43 351.36 246.45C338.04 267.31 336.32 268.73 322.15 268.73C307.97 268.73 306.26 267.31 292.94 246.45C285.21 234.43 279.19 220.99 279.19 216.75C279.19 212.51 285.21 201.19 292.51 191.29Z" id="cdAmZeh57"></path><path d="M292.51 191.29C304.97 175.03 307.54 173.26 322.15 173.26C336.75 173.26 339.33 175.03 351.79 191.29C359.09 201.19 365.1 212.51 365.1 216.75C365.1 220.99 359.09 234.43 351.36 246.45C338.04 267.31 336.32 268.73 322.15 268.73C307.97 268.73 306.26 267.31 292.94 246.45C285.21 234.43 279.19 220.99 279.19 216.75C279.19 212.51 285.21 201.19 292.51 191.29Z" id="bm6tKaYZo"></path><path d="M238.82 487.25C218.2 450.48 206.17 408.04 206.17 373.39C206.17 325.66 192 293.48 158.93 264.84C136.59 245.39 95.36 228.07 64 224.53C62.58 224.35 55.58 223.54 42.95 222.06C42.95 220.83 42.95 214.7 42.95 203.67C42.95 192.42 42.95 186.18 42.95 184.93C60.48 186.84 70.23 187.9 72.16 188.11C122.42 193.77 188.13 225.59 209.18 254.94C213.05 260.6 217.77 265.19 219.06 265.19C220.35 265.19 225.5 255.29 230.66 243.27C231.3 241.79 234.44 234.36 240.11 220.99C229.8 212.3 224.09 207.45 222.93 206.5C186.42 175.73 126.28 152.75 67.01 146.74C65.42 146.56 57.39 145.75 42.95 144.27C42.95 132.6 42.95 126.13 42.95 124.82C42.95 105.72 42.95 105.37 54.55 107.49C61.42 108.2 76.46 109.97 88.05 111.38C136.16 116.33 201.45 140.73 239.25 167.96C251.28 176.8 262.01 183.87 262.87 183.87C264.16 183.87 271.03 176.8 278.34 168.31C279.24 167.28 283.83 162.09 292.08 152.75C282.29 145.54 276.83 141.54 275.76 140.73C222.5 101.13 147.33 74.61 72.16 68.6C70.23 68.42 60.48 67.61 42.95 66.12C42.95 64.85 42.95 58.48 42.95 47.03C42.95 35.57 42.95 29.21 42.95 27.93C59.19 29.21 68.21 29.91 70.01 30.06C158.5 37.83 235.81 64 299.81 108.55C301.32 109.61 308.75 114.92 322.15 124.46C335.81 114.92 343.41 109.61 344.91 108.55C403.33 67.54 476.78 41.02 555.38 32.18C604.35 26.52 601.34 25.46 601.34 47.38C601.34 48.62 601.34 54.88 601.34 66.12C583.04 67.61 572.86 68.42 570.85 68.6C530.04 72.13 477.21 84.86 440.27 100.42C408.48 113.86 356.51 146.03 356.51 152.75C356.51 154.87 361.66 162.3 368.11 169.37C374.12 176.44 379.7 182.45 380.56 183.16C380.99 183.87 393.45 176.44 408.05 166.54C453.15 136.84 508.56 116.33 556.24 111.38C568.27 109.97 582.87 108.2 589.74 107.49C601.34 105.37 601.34 105.72 601.34 124.82C601.34 126.13 601.34 132.6 601.34 144.27C586.65 145.75 578.49 146.56 576.86 146.74C515.44 152.75 455.3 176.8 415.36 211.09C414.54 211.8 410.54 215.34 403.33 221.7C408.74 231.04 411.75 236.23 412.35 237.26C417.07 245.75 420.94 255.65 420.94 259.18C420.94 268.38 426.52 266.25 438.12 252.11C466.04 218.17 536.05 187.4 585.45 187.4C586.52 187.4 591.81 187.4 601.34 187.4C601.34 188.56 601.34 194.33 601.34 204.73C601.34 215.12 601.34 220.9 601.34 222.06C588.71 223.54 581.71 224.35 580.3 224.53C550.23 228.07 510.71 244.33 487.52 263.07C454.44 289.94 438.55 328.49 438.12 381.88C438.12 418.3 413.21 483.01 383.57 525.08C364.67 551.6 329.45 586.96 321.72 586.96C320 586.96 310.12 578.48 299.38 568.57C282.2 551.6 249.13 511.29 249.13 507.4C249.13 506.7 244.4 497.5 238.82 487.25ZM343.62 485.48C338.9 480.53 335.03 474.87 335.03 473.1C335.03 471.34 331.6 466.74 326.87 462.85C319.14 455.78 318.71 455.78 312.27 469.22C308.83 476.64 302.82 485.83 299.38 489.37C293.8 495.73 294.23 498.21 305.83 513.41C312.7 522.61 320 530.39 321.72 530.39C323.87 530.39 331.17 522.25 338.9 512.35C340.66 509.95 345.13 503.94 352.21 494.32C347.06 489.02 344.18 486.08 343.62 485.48ZM373.26 265.19C367.25 265.19 353.07 302.32 347.92 331.31C344.05 353.59 344.05 365.97 347.92 386.12C353.93 414.41 363.38 441.28 370.68 448.71C376.27 454.36 378.85 448.35 389.15 404.86C393.88 386.12 395.17 366.32 393.88 346.52C391.73 315.4 378.85 265.19 373.26 265.19ZM271.03 265.19C263.3 265.19 251.28 320.35 251.28 357.13C251.28 396.38 263.73 450.48 272.32 448C274.47 447.29 280.48 438.1 284.78 427.85C299.81 391.43 303.25 357.48 295.09 322.12C287.36 289.24 277.48 265.19 271.03 265.19ZM338.47 201.55C331.6 192.71 324.3 185.64 322.15 185.64C320 185.64 312.7 192.71 305.83 201.55C305.01 202.61 300.84 207.91 293.37 217.46C301.36 229.55 305.78 236.27 306.68 237.61C313.99 248.93 320.86 258.12 322.15 258.12C323.44 258.12 330.31 248.93 337.61 237.61C339.37 234.93 343.84 228.21 350.93 217.46C343.45 207.91 339.29 202.61 338.47 201.55Z" id="b1kTMbPXK0"></path><path d="M238.82 487.25C218.2 450.48 206.17 408.04 206.17 373.39C206.17 325.66 192 293.48 158.93 264.84C136.59 245.39 95.36 228.07 64 224.53C62.58 224.35 55.58 223.54 42.95 222.06C42.95 220.83 42.95 214.7 42.95 203.67C42.95 192.42 42.95 186.18 42.95 184.93C60.48 186.84 70.23 187.9 72.16 188.11C122.42 193.77 188.13 225.59 209.18 254.94C213.05 260.6 217.77 265.19 219.06 265.19C220.35 265.19 225.5 255.29 230.66 243.27C231.3 241.79 234.44 234.36 240.11 220.99C229.8 212.3 224.09 207.45 222.93 206.5C186.42 175.73 126.28 152.75 67.01 146.74C65.42 146.56 57.39 145.75 42.95 144.27C42.95 132.6 42.95 126.13 42.95 124.82C42.95 105.72 42.95 105.37 54.55 107.49C61.42 108.2 76.46 109.97 88.05 111.38C136.16 116.33 201.45 140.73 239.25 167.96C251.28 176.8 262.01 183.87 262.87 183.87C264.16 183.87 271.03 176.8 278.34 168.31C279.24 167.28 283.83 162.09 292.08 152.75C282.29 145.54 276.83 141.54 275.76 140.73C222.5 101.13 147.33 74.61 72.16 68.6C70.23 68.42 60.48 67.61 42.95 66.12C42.95 64.85 42.95 58.48 42.95 47.03C42.95 35.57 42.95 29.21 42.95 27.93C59.19 29.21 68.21 29.91 70.01 30.06C158.5 37.83 235.81 64 299.81 108.55C301.32 109.61 308.75 114.92 322.15 124.46C335.81 114.92 343.41 109.61 344.91 108.55C403.33 67.54 476.78 41.02 555.38 32.18C604.35 26.52 601.34 25.46 601.34 47.38C601.34 48.62 601.34 54.88 601.34 66.12C583.04 67.61 572.86 68.42 570.85 68.6C530.04 72.13 477.21 84.86 440.27 100.42C408.48 113.86 356.51 146.03 356.51 152.75C356.51 154.87 361.66 162.3 368.11 169.37C374.12 176.44 379.7 182.45 380.56 183.16C380.99 183.87 393.45 176.44 408.05 166.54C453.15 136.84 508.56 116.33 556.24 111.38C568.27 109.97 582.87 108.2 589.74 107.49C601.34 105.37 601.34 105.72 601.34 124.82C601.34 126.13 601.34 132.6 601.34 144.27C586.65 145.75 578.49 146.56 576.86 146.74C515.44 152.75 455.3 176.8 415.36 211.09C414.54 211.8 410.54 215.34 403.33 221.7C408.74 231.04 411.75 236.23 412.35 237.26C417.07 245.75 420.94 255.65 420.94 259.18C420.94 268.38 426.52 266.25 438.12 252.11C466.04 218.17 536.05 187.4 585.45 187.4C586.52 187.4 591.81 187.4 601.34 187.4C601.34 188.56 601.34 194.33 601.34 204.73C601.34 215.12 601.34 220.9 601.34 222.06C588.71 223.54 581.71 224.35 580.3 224.53C550.23 228.07 510.71 244.33 487.52 263.07C454.44 289.94 438.55 328.49 438.12 381.88C438.12 418.3 413.21 483.01 383.57 525.08C364.67 551.6 329.45 586.96 321.72 586.96C320 586.96 310.12 578.48 299.38 568.57C282.2 551.6 249.13 511.29 249.13 507.4C249.13 506.7 244.4 497.5 238.82 487.25ZM343.62 485.48C338.9 480.53 335.03 474.87 335.03 473.1C335.03 471.34 331.6 466.74 326.87 462.85C319.14 455.78 318.71 455.78 312.27 469.22C308.83 476.64 302.82 485.83 299.38 489.37C293.8 495.73 294.23 498.21 305.83 513.41C312.7 522.61 320 530.39 321.72 530.39C323.87 530.39 331.17 522.25 338.9 512.35C340.66 509.95 345.13 503.94 352.21 494.32C347.06 489.02 344.18 486.08 343.62 485.48ZM373.26 265.19C367.25 265.19 353.07 302.32 347.92 331.31C344.05 353.59 344.05 365.97 347.92 386.12C353.93 414.41 363.38 441.28 370.68 448.71C376.27 454.36 378.85 448.35 389.15 404.86C393.88 386.12 395.17 366.32 393.88 346.52C391.73 315.4 378.85 265.19 373.26 265.19ZM271.03 265.19C263.3 265.19 251.28 320.35 251.28 357.13C251.28 396.38 263.73 450.48 272.32 448C274.47 447.29 280.48 438.1 284.78 427.85C299.81 391.43 303.25 357.48 295.09 322.12C287.36 289.24 277.48 265.19 271.03 265.19ZM338.47 201.55C331.6 192.71 324.3 185.64 322.15 185.64C320 185.64 312.7 192.71 305.83 201.55C305.01 202.61 300.84 207.91 293.37 217.46C301.36 229.55 305.78 236.27 306.68 237.61C313.99 248.93 320.86 258.12 322.15 258.12C323.44 258.12 330.31 248.93 337.61 237.61C339.37 234.93 343.84 228.21 350.93 217.46C343.45 207.91 339.29 202.61 338.47 201.55Z" id="auc3n9C4L"></path></defs><g><g><g><use xlink:href="#e2NJb0RsN" opacity="1" fill="#2f303a" fill-opacity="1"></use><g><use xlink:href="#e2NJb0RsN" opacity="1" fill-opacity="0" stroke="#000000" stroke-width="1" stroke-opacity="0"></use></g></g><g><use xlink:href="#bk2lALEQ" opacity="1" fill="#000000" fill-opacity="0"></use><g><use xlink:href="#bk2lALEQ" opacity="1" fill-opacity="0" stroke="#000000" stroke-width="1" stroke-opacity="0"></use></g></g><g><use xlink:href="#agrwRcxWx" opacity="1" fill="#2f303a" fill-opacity="1"></use><g><use xlink:href="#agrwRcxWx" opacity="1" fill-opacity="0" stroke="#000000" stroke-width="1" stroke-opacity="0"></use></g></g><g><use xlink:href="#crTzcitgk" opacity="1" fill="#000000" fill-opacity="0"></use><g><use xlink:href="#crTzcitgk" opacity="1" fill-opacity="0" stroke="#000000" stroke-width="1" stroke-opacity="0"></use></g></g><g><use xlink:href="#b5mDrwd74" opacity="1" fill="#2f303a" fill-opacity="1"></use><g><use xlink:href="#b5mDrwd74" opacity="1" fill-opacity="0" stroke="#000000" stroke-width="1" stroke-opacity="0"></use></g></g><g><use xlink:href="#b14MjVeb77" opacity="1" fill="#000000" fill-opacity="0"></use><g><use xlink:href="#b14MjVeb77" opacity="1" fill-opacity="0" stroke="#000000" stroke-width="1" stroke-opacity="0"></use></g></g><g><use xlink:href="#i4KQ9q30Ja" opacity="1" fill="#2f303a" fill-opacity="1"></use><g><use xlink:href="#i4KQ9q30Ja" opacity="1" fill-opacity="0" stroke="#000000" stroke-width="1" stroke-opacity="0"></use></g></g><g><use xlink:href="#c215GVtBN" opacity="1" fill="#000000" fill-opacity="0"></use><g><use xlink:href="#c215GVtBN" opacity="1" fill-opacity="0" stroke="#000000" stroke-width="1" stroke-opacity="0"></use></g></g><g><use xlink:href="#cdAmZeh57" opacity="1" fill="#2f303a" fill-opacity="1"></use><g><use xlink:href="#cdAmZeh57" opacity="1" fill-opacity="0" stroke="#000000" stroke-width="1" stroke-opacity="0"></use></g></g><g><use xlink:href="#bm6tKaYZo" opacity="1" fill="#000000" fill-opacity="0"></use><g><use xlink:href="#bm6tKaYZo" opacity="1" fill-opacity="0" stroke="#000000" stroke-width="1" stroke-opacity="0"></use></g></g><g><use xlink:href="#b1kTMbPXK0" opacity="1" fill="#c9bd83" fill-opacity="1"></use><g><use xlink:href="#b1kTMbPXK0" opacity="1" fill-opacity="0" stroke="#000000" stroke-width="1" stroke-opacity="0"></use></g></g><g><use xlink:href="#auc3n9C4L" opacity="1" fill="#000000" fill-opacity="0"></use><g><use xlink:href="#auc3n9C4L" opacity="1" fill-opacity="0" stroke="#000000" stroke-width="1" stroke-opacity="0"></use></g></g></g></g></svg>